<svg width="250" height="250" viewBox="0 0 250 250" fill="none" xmlns="http://www.w3.org/2000/svg">
<g clip-path="url(#clip0_97_3577)">
<path d="M250 0H0V250H250V0Z" fill="black"/>
<path d="M212.973 156.486H227.297V180H182.162V119.189C182.162 100.541 175.946 93.2432 163.784 93.2432C148.919 93.2432 142.973 103.784 142.973 118.919V156.486H157.297V180H112.162V119.189C112.162 100.541 105.946 93.2432 93.7838 93.2432C78.919 93.2432 72.973 103.784 72.973 118.919V156.486H93.5136V180H27.8379V156.486H42.1622V95.6757H27.8379V72.1622H72.973V88.3784C79.4595 77.027 90.8109 70 105.676 70C121.351 70 135.676 77.2973 140.811 93.2432C146.757 78.9189 158.919 70 175.946 70C195.405 70 212.973 81.6216 212.973 107.297V156.486Z" fill="white"/>
</g>
<defs>
<clipPath id="clip0_97_3577">
<rect width="250" height="250" fill="white"/>
</clipPath>
</defs>
</svg>