<svg viewBox="0 0 1024 1024" version="1.1" xmlns="http://www.w3.org/2000/svg"><path d="M1016.123077 567.138462l-41.353846-41.353847c-11.815385-11.815385-29.538462-11.815385-41.353846 0l-53.169231 53.169231c-13.784615 13.784615-33.476923 3.938462-33.476923-13.784615V236.307692c0-43.323077-35.446154-78.769231-78.769231-78.76923H482.461538c-15.753846 0-29.538462 13.784615-29.538461 29.538461v59.076923c0 15.753846 13.784615 29.538462 29.538461 29.538462h216.615385c15.753846 0 29.538462 13.784615 29.538462 29.538461v259.938462c0 17.723077-21.661538 25.6-35.446154 13.784615l-51.2-51.2c-11.815385-11.815385-31.507692-11.815385-41.353846 0L559.261538 571.076923c-11.815385 11.815385-11.815385 29.538462 0 41.353846l206.769231 206.769231c11.815385 11.815385 29.538462 11.815385 41.353846 0L1016.123077 610.461538c9.846154-11.815385 9.846154-31.507692 0-43.323076zM541.538462 748.307692h-216.615385c-15.753846 0-29.538462-13.784615-29.538462-29.538461V458.830769c0-17.723077 21.661538-25.6 35.446154-13.784615l51.2 51.2c11.815385 11.815385 31.507692 11.815385 41.353846 0l41.353847-41.353846c11.815385-11.815385 11.815385-29.538462 0-41.353846L259.938462 204.8c-11.815385-11.815385-29.538462-11.815385-41.353847 0L7.876923 413.538462c-11.815385 11.815385-11.815385 29.538462 0 41.353846l41.353846 41.353846c11.815385 11.815385 29.538462 11.815385 41.353846 0l53.169231-53.169231c11.815385-11.815385 33.476923-3.938462 33.476923 13.784615V787.692308c0 43.323077 37.415385 78.769231 80.738462 78.76923h285.538461c15.753846 0 29.538462-13.784615 29.538462-29.538461v-59.076923c-1.969231-15.753846-15.753846-29.538462-31.507692-29.538462z"  /></svg>