<svg xmlns="http://www.w3.org/2000/svg" xmlns:xlink="http://www.w3.org/1999/xlink" version="1.1" x="0px" y="0px" viewBox="0 0 100 100" enable-background="new 0 0 100 100" xml:space="preserve"><path d="M95.1,41.4c0-3.5-2.6-6.1-6.7-6.7l-22.1-3.2l-9.8-20c-1.4-2.9-3.9-4.6-6.5-4.6c-2.6,0-5,1.6-6.4,4.5l-9.9,20.1l-22.3,3.2  c-4.1,0.7-6.5,3.3-6.5,6.7c0,2.8,1.8,4.8,2.4,5.4c0.1,0,1.6,1.5,16.2,15.8c-3.9,22.1-3.9,22.3-3.9,22.3C18.4,91,25,95.2,30.1,92.1  l19.8-10.3L69.5,92c5.4,2.9,10.9,0.2,10.9-5.7l-4.1-23.8l16.1-15.6C94.3,45.1,95.1,43.3,95.1,41.4z"></path></svg>